<svg xmlns="http://www.w3.org/2000/svg" viewBox="0 0 24 24"><path d="M5 2c-1.105 0-2 .9-2 2v18c0 1.1.895 2 2 2h14c1.105 0 2-.9 2-2V8l-6-6H5z" fill="#065999" class="fill-8e44ad"></path><path d="M5 1c-1.105 0-2 .9-2 2v18c0 1.1.895 2 2 2h14c1.105 0 2-.9 2-2V7l-6-6H5z" fill="#0077cc" class="fill-9b59b6"></path><path d="m21 7-6-6v4c0 1.1.895 2 2 2h4z" fill="#065999" class="fill-8e44ad"></path><path d="M10 13v7h1v-2h1a2.5 2.5 0 1 0 0-5h-2zm1 1h1.031a1.5 1.5 0 0 1 0 3H11v-3zM15 15v5h1v-2.594c.456-.855 1.179-1.406 2-1.406.173 0 .337.016.5.062V15c-.942 0-1.817.413-2.5 1.094V15h-1z" fill="#0077cc" class="fill-ecf0f1"></path></svg>