<svg xmlns="http://www.w3.org/2000/svg" width="32" height="32" viewBox="0 0 32 32">
  <g fill="none" fill-rule="evenodd">
    <path fill="#F04E98" d="M19.6631,11.4287 L19.6631,11.4287 C20.2151,11.8707 20.9711,11.9577 21.6071,11.6537 L29.7071,7.7777 C27.7561,4.5327 24.6971,2.0377 21.0441,0.8247 L19.0221,9.5797 C18.8631,10.2687 19.1121,10.9877 19.6631,11.4287"/>
    <path fill="#343741" d="M30.9756,21.5918 C31.6266,19.8488 31.9996,17.9708 31.9996,15.9998 C31.9996,14.0588 31.6366,12.2058 31.0026,10.4848 L23.0076,14.3098 C22.3616,14.6188 21.9966,15.2838 21.9955671,16.0008 L21.9955671,16.0248 C21.9916,16.7428 22.3526,17.4118 22.9996,17.7258 L30.9756,21.5918 Z"/>
    <path fill="#07C" d="M14.6553,21.833 C13.1733,21.5 11.7953,20.608 10.8733,19.124 C9.6973,17.231 9.6993,14.756 10.8793,12.865 C11.8073,11.378 13.1953,10.485 14.6853,10.158 C15.3883,10.004 15.9613,9.502 16.1223,8.801 L18.1183,0.156 C17.4243,0.064 16.7193,0 16.0003,0 C7.1633,0 0.0003,7.163 0.0003,16 C0.0003,24.837 7.1633,32 16.0003,32 C16.6923,32 17.3703,31.941 18.0393,31.855 L16.0863,23.198 C15.9273,22.496 15.3573,21.99 14.6553,21.833"/>
    <path fill="#F04E98" d="M19.6406,20.5898 L19.6406,20.5898 C19.0866,21.0288 18.8336,21.7468 18.9896,22.4368 L20.9666,31.2038 C24.6286,30.0088 27.6996,27.5248 29.6656,24.2898 L21.5876,20.3748 C20.9516,20.0668 20.1946,20.1508 19.6406,20.5898"/>
    <path fill="#343741" d="M19,16 C19,17.657 17.657,19 16,19 C14.343,19 13,17.657 13,16 C13,14.343 14.343,13 16,13 C17.657,13 19,14.343 19,16"/>
  </g>
</svg>
